<svg width="602" height="360" viewBox="0 0 602 360" fill="none" xmlns="http://www.w3.org/2000/svg">
<g clip-path="url(#clip0)">
<path d="M460.905 355.929C453.198 349.415 448.517 339.124 449.744 329.107C450.972 319.089 458.576 309.88 468.44 307.752C478.304 305.625 489.547 311.514 492.543 321.151C494.192 302.57 496.092 283.211 505.968 267.387C514.911 253.06 530.401 242.807 547.187 240.973C563.974 239.139 581.648 246.066 592.118 259.319C602.587 272.572 605.15 291.839 597.818 307.054C592.416 318.263 582.465 326.605 572.038 333.391C538.346 355.135 497.936 363.978 458.244 358.292L460.905 355.929Z" fill="#F2F2F2"/>
<path d="M575.517 246.45C561.666 257.735 548.959 270.356 537.58 284.131C519.772 305.615 505.362 329.703 494.851 355.554C494.081 357.44 497.143 358.261 497.904 356.396C515.101 314.382 542.556 277.351 577.756 248.69C579.337 247.402 577.085 245.174 575.517 246.45Z" fill="white"/>
<path d="M193.794 354.159C204.379 345.212 210.809 331.078 209.123 317.319C207.437 303.559 196.993 290.91 183.445 287.988C169.897 285.066 154.454 293.155 150.339 306.392C148.074 280.871 145.465 254.281 131.9 232.547C119.617 212.868 98.3421 198.787 75.2854 196.268C52.2287 193.748 27.953 203.263 13.5734 221.466C-0.806193 239.668 -4.32698 266.132 5.74412 287.03C13.1631 302.425 26.8316 313.882 41.1528 323.203C86.8422 352.94 143.52 365.343 197.449 357.404" fill="#F2F2F2"/>
<path d="M36.3737 203.79C55.3984 219.29 72.8514 236.625 88.4805 255.545C104.112 274.445 117.874 294.818 129.573 316.376C136.112 328.469 141.986 340.91 147.17 353.644C148.226 356.235 144.021 357.362 142.976 354.801C133.795 332.351 122.437 310.855 109.064 290.622C95.7562 270.462 80.5244 251.641 63.5829 234.423C54.0008 224.689 43.8907 215.489 33.2987 206.866C31.1276 205.098 34.2206 202.036 36.3737 203.79L36.3737 203.79Z" fill="white"/>
<path d="M432.125 359.212H179.562V100.012C179.562 44.865 224.416 0 279.549 0H332.138C387.271 0 432.125 44.865 432.125 100.012V359.212Z" fill="#F2F2F2"/>
<path d="M379.537 359.212H179.562V100.012C179.507 78.8808 186.196 58.2839 198.657 41.2199C199.116 40.5936 199.574 39.9755 200.047 39.3642C206.074 31.4574 213.246 24.494 221.327 18.7039C221.784 18.3717 222.242 18.0452 222.707 17.7188C229.469 13.0382 236.784 9.21198 244.485 6.32711C244.942 6.15374 245.407 5.98003 245.873 5.81342C252.838 3.32736 260.057 1.62443 267.399 0.736055C267.854 0.673868 268.321 0.625205 268.788 0.576542C275.942 -0.18858 283.158 -0.18858 290.312 0.576542C290.778 0.625205 291.245 0.673862 291.706 0.73672C299.045 1.62515 306.263 3.32788 313.226 5.81345C313.691 5.98006 314.157 6.15376 314.616 6.32747C322.221 9.17595 329.45 12.9451 336.14 17.5508C336.605 17.8702 337.07 18.1967 337.528 18.5231C342.058 21.7572 346.312 25.3602 350.249 29.2953C353.405 32.4517 356.347 35.8162 359.053 39.3662C359.524 39.9756 359.982 40.5937 360.441 41.2189C372.902 58.2831 379.592 78.8804 379.537 100.012V359.212Z" fill="#CCCCCC"/>
<path d="M363.276 243.281C369.39 243.281 374.347 238.323 374.347 232.207C374.347 226.091 369.39 221.133 363.276 221.133C357.161 221.133 352.205 226.091 352.205 232.207C352.205 238.323 357.161 243.281 363.276 243.281Z" fill="#2473D5"/>
<path d="M411.435 351.448H402.952L398.916 318.719L411.437 318.72L411.435 351.448Z" fill="#FFB8B8"/>
<path d="M396.892 349.024H413.253V359.327H386.591C386.591 357.974 386.858 356.634 387.375 355.384C387.893 354.134 388.652 352.998 389.608 352.042C390.565 351.085 391.7 350.326 392.95 349.808C394.2 349.29 395.539 349.024 396.892 349.024Z" fill="#2F2E41"/>
<path d="M453.644 351.448H445.161L441.125 318.719L453.646 318.72L453.644 351.448Z" fill="#FFB8B8"/>
<path d="M439.101 349.024H455.462V359.327H428.8C428.8 357.974 429.067 356.634 429.584 355.384C430.102 354.134 430.861 352.998 431.817 352.042C432.774 351.085 433.91 350.326 435.159 349.808C436.409 349.29 437.749 349.024 439.101 349.024Z" fill="#2F2E41"/>
<path d="M368.879 234.401C368.269 233.502 367.863 232.479 367.691 231.406C367.518 230.333 367.583 229.235 367.88 228.19C368.178 227.144 368.701 226.177 369.413 225.355C370.125 224.534 371.008 223.879 372 223.436L400.838 143.934L415.028 151.68L382.101 227.655C382.735 229.371 382.717 231.261 382.051 232.966C381.384 234.67 380.116 236.071 378.486 236.902C376.856 237.734 374.978 237.939 373.207 237.478C371.437 237.017 369.897 235.922 368.879 234.401Z" fill="#FFB8B8"/>
<path d="M449.311 249.34C448.368 248.799 447.555 248.058 446.93 247.17C446.304 246.281 445.881 245.265 445.69 244.195C445.5 243.125 445.546 242.026 445.825 240.976C446.105 239.926 446.611 238.949 447.309 238.116L438.375 154.017L454.524 154.754L458.237 237.477C459.559 238.743 460.371 240.449 460.519 242.273C460.668 244.097 460.142 245.912 459.042 247.374C457.941 248.836 456.343 249.844 454.55 250.206C452.756 250.569 450.892 250.26 449.311 249.34Z" fill="#FFB8B8"/>
<path d="M423.549 129.208C432.935 129.208 440.544 121.597 440.544 112.209C440.544 102.82 432.935 95.2095 423.549 95.2095C414.163 95.2095 406.554 102.82 406.554 112.209C406.554 121.597 414.163 129.208 423.549 129.208Z" fill="#FFB8B8"/>
<path d="M449.202 230.213H397.965L398.027 229.814C398.119 229.218 407.159 169.988 400.492 150.611C399.823 148.706 399.881 146.622 400.657 144.758C401.432 142.895 402.869 141.384 404.691 140.517H404.691C414.221 136.028 432.513 130.501 447.952 143.915C450.224 145.921 451.998 148.429 453.134 151.239C454.271 154.049 454.737 157.086 454.498 160.108L449.202 230.213Z" fill="#2473D5"/>
<path d="M407.806 178.741L384.739 174.06L395.551 148.431C396.198 145.949 397.803 143.824 400.014 142.524C402.225 141.224 404.861 140.854 407.345 141.495C409.828 142.136 411.955 143.736 413.261 145.945C414.566 148.153 414.942 150.789 414.307 153.274L407.806 178.741Z" fill="#2473D5"/>
<path d="M437.35 187.433L435.963 155.635C434.911 149.658 438.332 144.008 443.593 143.084C448.856 142.164 453.995 146.309 455.051 152.331L460.264 182.042L437.35 187.433Z" fill="#2473D5"/>
<path d="M447.498 226.406C455.742 257.813 456.642 297.743 454.417 341.299L443.346 339.915L423.279 256.86L412.208 341.299L399.753 340.607C396.032 294.906 392.409 255.673 398.369 229.867L447.498 226.406Z" fill="#2F2E41"/>
<path d="M434.747 125.346C431.577 128.724 425.689 126.911 425.276 122.296C425.243 121.938 425.245 121.577 425.283 121.219C425.496 119.175 426.677 117.319 426.394 115.161C426.33 114.624 426.13 114.112 425.812 113.673C423.286 110.289 417.355 115.187 414.971 112.124C413.509 110.245 415.227 107.288 414.105 105.188C412.625 102.417 408.238 103.784 405.488 102.267C402.427 100.578 402.611 95.8815 404.625 93.0248C407.082 89.541 411.389 87.682 415.643 87.4141C419.897 87.1461 424.122 88.2963 428.093 89.8444C432.605 91.6033 437.08 94.0342 439.857 98.0028C443.234 102.829 443.559 109.318 441.87 114.961C440.842 118.394 437.336 122.588 434.747 125.346Z" fill="#2F2E41"/>
<path d="M581.229 359.657H70.3631C70.145 359.657 69.9361 359.57 69.7821 359.415C69.6281 359.261 69.5416 359.051 69.5416 358.833C69.5416 358.615 69.6281 358.406 69.7821 358.251C69.9361 358.097 70.145 358.01 70.3631 358.009H581.229C581.447 358.01 581.656 358.097 581.81 358.251C581.964 358.406 582.05 358.615 582.05 358.833C582.05 359.051 581.964 359.261 581.81 359.415C581.656 359.57 581.447 359.657 581.229 359.657Z" fill="#3F3D56"/>
<path d="M324.526 284.117H234.572C233.388 284.123 232.249 283.659 231.406 282.827C230.563 281.994 230.084 280.861 230.075 279.676V78.8434C230.084 77.6585 230.563 76.5255 231.406 75.6931C232.249 74.8607 233.388 74.3969 234.572 74.4032H324.526C325.711 74.3969 326.85 74.8607 327.693 75.6931C328.536 76.5255 329.015 77.6585 329.024 78.8434V279.676C329.015 280.861 328.536 281.994 327.693 282.827C326.85 283.659 325.711 284.123 324.526 284.117Z" fill="white"/>
<path d="M329.024 139.386H230.075V140.771H329.024V139.386Z" fill="#CCCCCC"/>
<path d="M329.37 218.365H230.421V219.749H329.37V218.365Z" fill="#CCCCCC"/>
<path d="M262.597 74.4033H261.213V284.809H262.597V74.4033Z" fill="#CCCCCC"/>
<path d="M297.194 74.4033H295.81V284.809H297.194V74.4033Z" fill="#CCCCCC"/>
</g>
<defs>
<clipPath id="clip0">
<rect width="602" height="360" fill="white"/>
</clipPath>
</defs>
</svg>
